<svg xmlns="http://www.w3.org/2000/svg" xmlns:xlink="http://www.w3.org/1999/xlink" width="362.585" height="563.696" viewBox="0 0 339.9238 528.46482"><defs><linearGradient id="b"><stop offset="0" stop-color="#2d9255"/><stop offset="1" stop-color="#41c575"/></linearGradient><linearGradient id="a"><stop offset="0" stop-color="#274633"/><stop offset="1" stop-color="#427758"/></linearGradient><linearGradient xlink:href="#a" id="c" x1="2531.201" y1="2832.564" x2="2492.282" y2="2960.854" gradientUnits="userSpaceOnUse"/><linearGradient xlink:href="#b" id="e" x1="2574.445" y1="2799.41" x2="2771.925" y2="2867.159" gradientUnits="userSpaceOnUse"/><linearGradient xlink:href="#a" id="g" x1="2759.909" y1="2866.889" x2="2743.506" y2="2957.701" gradientUnits="userSpaceOnUse"/><linearGradient xlink:href="#b" id="f" x1="2627.779" y1="3064.639" x2="2806.52" y2="3217.433" gradientUnits="userSpaceOnUse"/><linearGradient xlink:href="#a" id="d" x1="2809.403" y1="3237.613" x2="2756.069" y2="3290.948" gradientUnits="userSpaceOnUse"/></defs><g fill-rule="evenodd"><path d="M2566.293 3099.462h-70v-296.666l70 28.34z" fill="url(#c)" transform="translate(-2496.293 -2759.99)"/><path d="M2776.217 3218.454l60 70h-229.102v-70z" fill="url(#d)" transform="translate(-2496.293 -2759.99)"/><path d="M2575.482 2759.99l-79.19 42.806 70 28.34 158.231 57.591 75.2 19.242-25.204-75.537z" fill="url(#e)" transform="translate(-2496.293 -2759.99)"/><path d="M2607.115 3028.849l64.156 32.421 164.946 132.989v94.195l-60-52.652-169.102-136.34z" fill="url(#f)" transform="translate(-2496.293 -2759.99)"/><path d="M2724.523 2888.727l75.2 19.243-128.452 153.3-64.156-32.421z" fill="url(#g)" transform="translate(-2496.293 -2759.99)"/></g></svg>